<?xml version="1.0" encoding="UTF-8"?>
<svg width="56px" height="56px" viewBox="0 0 56 56" version="1.1" xmlns="http://www.w3.org/2000/svg" xmlns:xlink="http://www.w3.org/1999/xlink">
    <!-- Generator: Sketch 57.1 (83088) - https://sketch.com -->
    <title>features01</title>
    <desc>Created with Sketch.</desc>
    <g id="features01" stroke="none" stroke-width="1" fill="none" fill-rule="evenodd">
        <g id="icon" transform="translate(0.000000, 1.000000)">
            <path d="M1.5,17.5 L54.5,17.5 L54.5,3 C54.5,2.17157288 53.8284271,1.5 53,1.5 L3,1.5 C2.17157288,1.5 1.5,2.17157288 1.5,3 L1.5,17.5 Z" id="path" stroke="#02B4E5" stroke-width="3"></path>
            <path d="M1.5,17.5 L1.5,51 C1.5,51.8284271 2.17157288,52.5 3,52.5 L53,52.5 C53.8284271,52.5 54.5,51.8284271 54.5,51 L54.5,17.5 L1.5,17.5 Z" id="path" stroke="#02B4E5" stroke-width="3"></path>
            <path d="M29.5,24 C29.7761424,24 30,24.2238576 30,24.5 L30.0004318,26.5122698 C31.0531515,26.8844135 32.0159676,27.4468593 32.8475444,28.1582713 L34.5932667,27.1519238 C34.8324131,27.0138526 35.1382083,27.0957902 35.2762794,27.3349365 L37.7762794,31.6650635 C37.9143506,31.9042098 37.8324131,32.210005 37.5932667,32.3480762 L35.849989,33.3548835 C35.9485093,33.8882553 36,34.4381145 36,35 C36,35.5617948 35.9485259,36.1115671 35.8500367,36.644858 L37.5932667,37.6519238 C37.8324131,37.789995 37.9143506,38.0957902 37.7762794,38.3349365 L35.2762794,42.6650635 C35.1382083,42.9042098 34.8324131,42.9861474 34.5932667,42.8480762 L32.8478288,41.8414853 C32.0160518,42.5531282 31.052958,43.1157272 29.9999176,43.487912 L30,45.5 C30,45.7761424 29.7761424,46 29.5,46 L24.5,46 C24.2238576,46 24,45.7761424 24,45.5 L23.9995682,43.4877302 C22.9468485,43.1155865 21.9840324,42.5531407 21.1524556,41.8417287 L19.4067333,42.8480762 C19.1675869,42.9861474 18.8617917,42.9042098 18.7237206,42.6650635 L16.2237206,38.3349365 C16.0856494,38.0957902 16.1675869,37.789995 16.4067333,37.6519238 L18.150011,36.6451165 C18.0514907,36.1117447 18,35.5618855 18,35 C18,34.4381145 18.0514907,33.8882553 18.150011,33.3548835 L16.4067333,32.3480762 C16.1675869,32.210005 16.0856494,31.9042098 16.2237206,31.6650635 L18.7237206,27.3349365 C18.8617917,27.0957902 19.1675869,27.0138526 19.4067333,27.1519238 L21.1524556,28.1582713 C21.9840324,27.4468593 22.9468485,26.8844135 23.9995682,26.5122698 L24,24.5 C24,24.2238576 24.2238576,24 24.5,24 L29.5,24 Z M27,31 C24.790861,31 23,32.790861 23,35 C23,37.209139 24.790861,39 27,39 C29.209139,39 31,37.209139 31,35 C31,32.790861 29.209139,31 27,31 Z" id="path" fill="#02B4E5"></path>
            <rect id="path" fill="#02B4E5" opacity="0.3" x="18" y="3" width="35" height="13"></rect>
            <rect id="path" fill="#02B4E5" x="15" y="2" width="3" height="16"></rect>
        </g>
    </g>
</svg>