<?xml version="1.0" encoding="UTF-8"?>
<svg xmlns="http://www.w3.org/2000/svg" xmlns:xlink="http://www.w3.org/1999/xlink" width="36px" height="36px" viewBox="0 0 36 36" version="1.1">
<defs>
<filter id="alpha" filterUnits="objectBoundingBox" x="0%" y="0%" width="100%" height="100%">
  <feColorMatrix type="matrix" in="SourceGraphic" values="0 0 0 0 1 0 0 0 0 1 0 0 0 0 1 0 0 0 1 0"/>
</filter>
<mask id="mask0">
  <g filter="url(#alpha)">
<rect x="0" y="0" width="36" height="36" style="fill:rgb(0%,0%,0%);fill-opacity:0.133333;stroke:none;"/>
  </g>
</mask>
<clipPath id="clip1">
  <rect width="36" height="36"/>
</clipPath>
<g id="surface7" clip-path="url(#clip1)">
<path style=" stroke:none;fill-rule:evenodd;fill:rgb(0%,23.529412%,44.705882%);fill-opacity:1;" d="M 6.351562 15.75 L 29.648438 15.75 L 29.648438 29.25 L 6.351562 29.25 Z M 6.351562 15.75 "/>
</g>
</defs>
<g id="surface1">
<path style="fill:none;stroke-width:2;stroke-linecap:butt;stroke-linejoin:miter;stroke:rgb(0%,23.529412%,44.705882%);stroke-opacity:1;stroke-miterlimit:4;" d="M 1.999566 1 L 32.000434 1 C 32.553819 1 33.000217 1.447917 33.000217 2 L 33.000217 9 L 0.999783 9 L 0.999783 2 C 0.999783 1.447917 1.446181 1 1.999566 1 Z M 1.999566 1 " transform="matrix(1.058824,0,0,1.125,0,0)"/>
<path style="fill:none;stroke-width:2;stroke-linecap:butt;stroke-linejoin:miter;stroke:rgb(0%,23.529412%,44.705882%);stroke-opacity:1;stroke-miterlimit:4;" d="M 0.999783 9 L 33.000217 9 L 33.000217 30 C 33.000217 30.552083 32.553819 31 32.000434 31 L 1.999566 31 C 1.446181 31 0.999783 30.552083 0.999783 30 Z M 0.999783 9 " transform="matrix(1.058824,0,0,1.125,0,0)"/>
<path style=" stroke:none;fill-rule:evenodd;fill:rgb(0%,23.529412%,44.705882%);fill-opacity:1;" d="M 9.53125 2.25 L 11.648438 2.25 L 11.648438 9 L 9.53125 9 Z M 9.53125 2.25 "/>
<use xlink:href="#surface7" mask="url(#mask0)"/>
<path style=" stroke:none;fill-rule:evenodd;fill:rgb(0%,23.529412%,44.705882%);fill-opacity:1;" d="M 5.292969 15.75 L 6.351562 15.75 L 6.351562 19.125 L 5.292969 19.125 Z M 5.292969 15.75 "/>
<path style=" stroke:none;fill-rule:evenodd;fill:rgb(0%,23.529412%,44.705882%);fill-opacity:1;" d="M 29.648438 15.75 L 30.707031 15.75 L 30.707031 19.125 L 29.648438 19.125 Z M 29.648438 15.75 "/>
<path style=" stroke:none;fill-rule:evenodd;fill:rgb(0%,23.529412%,44.705882%);fill-opacity:1;" d="M 29.648438 20.25 L 30.707031 20.25 L 30.707031 24.75 L 29.648438 24.75 Z M 29.648438 20.25 "/>
<path style=" stroke:none;fill-rule:evenodd;fill:rgb(0%,23.529412%,44.705882%);fill-opacity:1;" d="M 5.292969 20.25 L 6.351562 20.25 L 6.351562 24.75 L 5.292969 24.75 Z M 5.292969 20.25 "/>
<path style=" stroke:none;fill-rule:evenodd;fill:rgb(0%,23.529412%,44.705882%);fill-opacity:1;" d="M 5.292969 25.875 L 6.351562 25.875 L 6.351562 30.375 L 5.292969 30.375 Z M 5.292969 25.875 "/>
<path style=" stroke:none;fill-rule:evenodd;fill:rgb(0%,23.529412%,44.705882%);fill-opacity:1;" d="M 29.648438 25.875 L 30.707031 25.875 L 30.707031 30.375 L 29.648438 30.375 Z M 29.648438 25.875 "/>
<path style=" stroke:none;fill-rule:evenodd;fill:rgb(0%,23.529412%,44.705882%);fill-opacity:1;" d="M 5.292969 14.625 L 9.53125 14.625 L 9.53125 15.75 L 5.292969 15.75 Z M 5.292969 14.625 "/>
<path style=" stroke:none;fill-rule:evenodd;fill:rgb(0%,23.529412%,44.705882%);fill-opacity:1;" d="M 10.589844 14.625 L 14.824219 14.625 L 14.824219 15.75 L 10.589844 15.75 Z M 10.589844 14.625 "/>
<path style=" stroke:none;fill-rule:evenodd;fill:rgb(0%,23.529412%,44.705882%);fill-opacity:1;" d="M 10.589844 29.25 L 14.824219 29.25 L 14.824219 30.375 L 10.589844 30.375 Z M 10.589844 29.25 "/>
<path style=" stroke:none;fill-rule:evenodd;fill:rgb(0%,23.529412%,44.705882%);fill-opacity:1;" d="M 15.882812 14.625 L 20.117188 14.625 L 20.117188 15.75 L 15.882812 15.75 Z M 15.882812 14.625 "/>
<path style=" stroke:none;fill-rule:evenodd;fill:rgb(0%,23.529412%,44.705882%);fill-opacity:1;" d="M 15.882812 29.25 L 20.117188 29.25 L 20.117188 30.375 L 15.882812 30.375 Z M 15.882812 29.25 "/>
<path style=" stroke:none;fill-rule:evenodd;fill:rgb(0%,23.529412%,44.705882%);fill-opacity:1;" d="M 21.175781 14.625 L 25.410156 14.625 L 25.410156 15.75 L 21.175781 15.75 Z M 21.175781 14.625 "/>
<path style=" stroke:none;fill-rule:evenodd;fill:rgb(0%,23.529412%,44.705882%);fill-opacity:1;" d="M 21.175781 29.25 L 25.410156 29.25 L 25.410156 30.375 L 21.175781 30.375 Z M 21.175781 29.25 "/>
<path style=" stroke:none;fill-rule:evenodd;fill:rgb(0%,23.529412%,44.705882%);fill-opacity:1;" d="M 26.46875 14.625 L 30.707031 14.625 L 30.707031 15.75 L 26.46875 15.75 Z M 26.46875 14.625 "/>
<path style=" stroke:none;fill-rule:evenodd;fill:rgb(0%,23.529412%,44.705882%);fill-opacity:1;" d="M 5.292969 29.25 L 9.53125 29.25 L 9.53125 30.375 L 5.292969 30.375 Z M 5.292969 29.25 "/>
<path style=" stroke:none;fill-rule:evenodd;fill:rgb(0%,23.529412%,44.705882%);fill-opacity:1;" d="M 26.46875 29.25 L 30.707031 29.25 L 30.707031 30.375 L 26.46875 30.375 Z M 26.46875 29.25 "/>
</g>
</svg>
