<?xml version="1.0" encoding="UTF-8"?>
<svg width="56px" height="56px" viewBox="0 0 56 56" version="1.1" xmlns="http://www.w3.org/2000/svg" xmlns:xlink="http://www.w3.org/1999/xlink">
    <!-- Generator: Sketch 57.1 (83088) - https://sketch.com -->
    <title>features02</title>
    <desc>Created with Sketch.</desc>
    <g id="features02" stroke="none" stroke-width="1" fill="none" fill-rule="evenodd">
        <g id="icon" transform="translate(0.000000, 1.000000)">
            <path d="M1.5,17.5 L54.5,17.5 L54.5,3 C54.5,2.17157288 53.8284271,1.5 53,1.5 L3,1.5 C2.17157288,1.5 1.5,2.17157288 1.5,3 L1.5,17.5 Z" id="path" stroke="#02B4E5" stroke-width="3"></path>
            <path d="M1.5,17.5 L1.5,51 C1.5,51.8284271 2.17157288,52.5 3,52.5 L53,52.5 C53.8284271,52.5 54.5,51.8284271 54.5,51 L54.5,17.5 L1.5,17.5 Z" id="path" stroke="#02B4E5" stroke-width="3"></path>
            <path d="M23.1075,29.745 L23.1075,32.557 C22.1574953,31.9743304 21.0998392,31.683 19.9345,31.683 C18.9084949,31.683 18.0471701,32.0408298 17.3505,32.7565 C16.6538299,33.4721702 16.3055,34.4316606 16.3055,35.635 C16.3055,36.8130059 16.6538299,37.7471632 17.3505,38.4375 C18.0471701,39.1278368 18.9464945,39.473 20.0485,39.473 C21.2391726,39.473 22.2588291,39.169003 23.1075,38.561 L23.1075,41.43 C22.3348295,41.9113357 21.220174,42.152 19.7635,42.152 C17.888824,42.152 16.3213396,41.5471727 15.061,40.3375 C13.8006604,39.1278273 13.1705,37.560343 13.1705,35.635 C13.1705,33.6843236 13.7816606,32.0946728 15.004,30.866 C16.2263394,29.6373272 17.8191568,29.023 19.7825,29.023 C21.2265072,29.023 22.3348295,29.2636643 23.1075,29.745 Z M32.6835,29.764 L32.6835,32.5 C31.6574949,31.9046637 30.5935055,31.607 29.4915,31.607 C28.9974975,31.607 28.620668,31.7083323 28.361,31.911 C28.101332,32.1136677 27.9715,32.3733317 27.9715,32.69 C27.9715,33.0066682 28.1298318,33.2884988 28.4465,33.5355 C28.7631683,33.7825012 29.2381635,34.0453319 29.8715,34.324 C30.2641686,34.5013342 30.590332,34.6564993 30.85,34.7895 C31.109668,34.9225007 31.4073317,35.1061655 31.743,35.3405 C32.0786683,35.5748345 32.3446657,35.821832 32.541,36.0815 C32.7373343,36.341168 32.905166,36.6609981 33.0445,37.041 C33.183834,37.4210019 33.2535,37.8326644 33.2535,38.276 C33.2535,39.4286724 32.8291709,40.3628298 31.9805,41.0785 C31.1318291,41.7941702 30.004507,42.152 28.5985,42.152 C27.0911591,42.152 25.8625048,41.8860027 24.9125,41.354 L24.9125,38.409 C26.0651724,39.2450042 27.2938268,39.663 28.5985,39.663 C29.0418356,39.663 29.4091652,39.5458345 29.7005,39.3115 C29.9918348,39.0771655 30.1375,38.7700019 30.1375,38.39 C30.1375,38.2633327 30.1185002,38.1430006 30.0805,38.029 C30.0424998,37.9149994 29.9728338,37.8073338 29.8715,37.706 C29.7701662,37.6046662 29.6720005,37.519167 29.577,37.4495 C29.4819995,37.379833 29.3426676,37.2975005 29.159,37.2025 C28.9753324,37.1074995 28.8201673,37.0283337 28.6935,36.965 C28.5668327,36.9016663 28.3800012,36.8130006 28.133,36.699 C27.8859988,36.5849994 27.6865008,36.4963336 27.5345,36.433 C26.7111626,36.0529981 26.0493358,35.5843361 25.549,35.027 C25.0486642,34.4696639 24.7985,33.7286713 24.7985,32.804 C24.7985,31.7019945 25.2038293,30.8121701 26.0145,30.1345 C26.8251707,29.4568299 27.9461595,29.118 29.3775,29.118 C30.6568397,29.118 31.7588287,29.3333312 32.6835,29.764 Z M42.4495,29.764 L42.4495,32.5 C41.4234949,31.9046637 40.3595055,31.607 39.2575,31.607 C38.7634975,31.607 38.386668,31.7083323 38.127,31.911 C37.867332,32.1136677 37.7375,32.3733317 37.7375,32.69 C37.7375,33.0066682 37.8958317,33.2884988 38.2125,33.5355 C38.5291682,33.7825012 39.0041635,34.0453319 39.6375,34.324 C40.0301686,34.5013342 40.356332,34.6564993 40.616,34.7895 C40.875668,34.9225007 41.1733317,35.1061655 41.509,35.3405 C41.8446683,35.5748345 42.1106657,35.821832 42.307,36.0815 C42.5033343,36.341168 42.671166,36.6609981 42.8105,37.041 C42.949834,37.4210019 43.0195,37.8326644 43.0195,38.276 C43.0195,39.4286724 42.5951709,40.3628298 41.7465,41.0785 C40.8978291,41.7941702 39.770507,42.152 38.3645,42.152 C36.8571591,42.152 35.6285048,41.8860027 34.6785,41.354 L34.6785,38.409 C35.8311724,39.2450042 37.0598268,39.663 38.3645,39.663 C38.8078356,39.663 39.1751652,39.5458345 39.4665,39.3115 C39.7578348,39.0771655 39.9035,38.7700019 39.9035,38.39 C39.9035,38.2633327 39.8845002,38.1430006 39.8465,38.029 C39.8084998,37.9149994 39.7388338,37.8073338 39.6375,37.706 C39.5361662,37.6046662 39.4380005,37.519167 39.343,37.4495 C39.2479995,37.379833 39.1086676,37.2975005 38.925,37.2025 C38.7413324,37.1074995 38.5861673,37.0283337 38.4595,36.965 C38.3328327,36.9016663 38.1460012,36.8130006 37.899,36.699 C37.6519988,36.5849994 37.4525008,36.4963336 37.3005,36.433 C36.4771626,36.0529981 35.8153358,35.5843361 35.315,35.027 C34.8146642,34.4696639 34.5645,33.7286713 34.5645,32.804 C34.5645,31.7019945 34.9698293,30.8121701 35.7805,30.1345 C36.5911707,29.4568299 37.7121595,29.118 39.1435,29.118 C40.4228397,29.118 41.5248287,29.3333312 42.4495,29.764 Z" id="path" fill="#02B4E5" fill-rule="nonzero"></path>
            <rect id="path" fill="#02B4E5" opacity="0.3" x="3" y="3" width="12" height="13"></rect>
            <rect id="path" fill="#02B4E5" x="15" y="2" width="3" height="16"></rect>
        </g>
    </g>
</svg>